<svg id="Layer_1" data-name="Layer 1" xmlns="http://www.w3.org/2000/svg" xmlns:xlink="http://www.w3.org/1999/xlink" viewBox="0 0 370.28 368.81"><defs><style>.cls-1{fill:url(#radial-gradient);}.cls-2{fill:#58574c;opacity:0.72;}.cls-3{fill:#f9ed32;}.cls-4{fill:#5bba47;}.cls-5{fill:#fff;}.cls-6{font-size:60px;fill:#555;font-family:MyriadPro-Regular, Myriad Pro;}.cls-7{letter-spacing:-0.01em;}.cls-8{letter-spacing:0em;}.cls-9{letter-spacing:0.02em;}.cls-10{letter-spacing:-0.01em;}</style><radialGradient id="radial-gradient" cx="421.25" cy="149.44" r="443.8" gradientUnits="userSpaceOnUse"><stop offset="0.6" stop-color="#f9ed77"/><stop offset="0.93" stop-color="#f9ed32"/></radialGradient></defs><title>AddItemIcon</title><path class="cls-1" d="M482,284.44a779.23,779.23,0,0,0-11.12-122H430v-42H115.47a903,903,0,0,1,16.5,149,904.24,904.24,0,0,1-16.5,198h347A780,780,0,0,0,482,284.44Z" transform="translate(-115.47 -120.44)"/><path class="cls-2" d="M470.73,162.44h0l-19.18-20.3-21.7-21.7h0l-1.61,43.82Z" transform="translate(-115.47 -120.44)"/><path class="cls-3" d="M470.73,162.44l-.23-1.35-19.65-19.65-21-21v42Z" transform="translate(-115.47 -120.44)"/><circle class="cls-4" cx="300.41" cy="298.93" r="69.88"/><rect class="cls-5" x="291.03" y="253.56" width="18.76" height="92.5" rx="4.88" ry="4.88"/><rect class="cls-5" x="406.49" y="373.13" width="18.76" height="92.5" rx="4.94" ry="4.94" transform="translate(719.78 -116.94) rotate(90)"/><text class="cls-6" transform="translate(125.83 155.11)"><tspan class="cls-7">A<tspan class="cls-8" x="36" y="0">dd</tspan></tspan><tspan class="cls-9" x="0" y="72">I</tspan><tspan class="cls-10" x="15.3" y="72">t</tspan><tspan x="34.8" y="72">em</tspan></text></svg>