<svg id="Layer_1" data-name="Layer 1" xmlns="http://www.w3.org/2000/svg" xmlns:xlink="http://www.w3.org/1999/xlink" viewBox="0 0 384 341.5"><defs><style>.cls-1,.cls-3,.cls-4{fill:#f0ecf5;}.cls-2{fill:url(#linear-gradient);}.cls-3{opacity:0.7;}.cls-4{stroke:#808285;}.cls-4,.cls-5{stroke-miterlimit:10;}.cls-5{font-size:48px;fill:#fff;stroke:#fff;font-family:MyriadPro-Regular, Myriad Pro;}.cls-6{letter-spacing:0.01em;}</style><linearGradient id="linear-gradient" x1="192" y1="143.5" x2="192" y2="23.5" gradientUnits="userSpaceOnUse"><stop offset="0" stop-color="#721012"/><stop offset="0.08" stop-color="#841517"/><stop offset="0.21" stop-color="#9e1b1d"/><stop offset="0.35" stop-color="#b02022"/><stop offset="0.5" stop-color="#bb2325"/><stop offset="0.65" stop-color="#bf2426"/></linearGradient></defs><title>ScheduleIcon</title><rect class="cls-1" y="23.5" width="384" height="318" rx="29" ry="29"/><path class="cls-2" d="M32.5,23.5H359a25,25,0,0,1,25,25v95a0,0,0,0,1,0,0H0a0,0,0,0,1,0,0V56A32.5,32.5,0,0,1,32.5,23.5Z"/><path class="cls-3" d="M467,169l-1.78-10.78a17.76,17.76,0,0,0-17.61-14.86l-314.85-.18a21.44,21.44,0,0,0-20.51,15.17L109,169l1-10.5A20.5,20.5,0,0,1,130.5,138H450a18,18,0,0,1,18,18Z" transform="translate(-96 -102.5)"/><rect class="cls-1" x="82" width="51" height="71" rx="17" ry="17"/><rect class="cls-1" x="245" width="51" height="71" rx="17.25" ry="17.25"/><rect class="cls-4" x="17" y="160" width="60" height="47" rx="8" ry="8"/><rect class="cls-4" x="90.5" y="160" width="60" height="47" rx="8" ry="8"/><rect class="cls-4" x="163.25" y="160" width="60" height="47" rx="8" ry="8"/><rect class="cls-4" x="236" y="160" width="60" height="47" rx="8" ry="8"/><rect class="cls-4" x="307" y="160" width="60" height="47" rx="8" ry="8"/><rect class="cls-4" x="17.5" y="223.5" width="60" height="47" rx="8" ry="8"/><rect class="cls-4" x="91" y="223.5" width="60" height="47" rx="8" ry="8"/><rect class="cls-4" x="163.75" y="223.5" width="60" height="47" rx="8" ry="8"/><rect class="cls-4" x="236.5" y="223.5" width="60" height="47" rx="8" ry="8"/><rect class="cls-4" x="307.5" y="223.5" width="60" height="47" rx="8" ry="8"/><rect class="cls-4" x="18.25" y="287" width="60" height="47" rx="8" ry="8"/><rect class="cls-4" x="91.75" y="287" width="60" height="47" rx="8" ry="8"/><rect class="cls-4" x="164.5" y="287" width="60" height="47" rx="8" ry="8"/><rect class="cls-4" x="237.25" y="287" width="60" height="47" rx="8" ry="8"/><rect class="cls-4" x="308.25" y="287" width="60" height="47" rx="8" ry="8"/><text class="cls-5" transform="translate(27 125.5)"><tspan class="cls-6">S</tspan><tspan x="23.95" y="0">chedule</tspan></text></svg>