<svg id="Layer_1" data-name="Layer 1" xmlns="http://www.w3.org/2000/svg" xmlns:xlink="http://www.w3.org/1999/xlink" viewBox="0 0 360.75 326.22"><defs><style>.cls-1,.cls-2,.cls-3{stroke-miterlimit:10;}.cls-1{fill:url(#radial-gradient);stroke:url(#radial-gradient-2);}.cls-2,.cls-3{stroke:#37a3dc;}.cls-2{fill:url(#radial-gradient-3);}.cls-3{fill:url(#radial-gradient-4);}.cls-4{font-size:56.54px;fill:#fff;}.cls-4,.cls-5{font-family:MyriadPro-Regular, Myriad Pro;}.cls-5{font-size:60px;fill:#555;}.cls-6{letter-spacing:0.01em;}.cls-7{letter-spacing:0.02em;}.cls-8{letter-spacing:0em;}.cls-9{letter-spacing:0.02em;}.cls-10{letter-spacing:-0.01em;}</style><radialGradient id="radial-gradient" cx="125.52" cy="189.39" r="57.34" gradientUnits="userSpaceOnUse"><stop offset="0.23" stop-color="#00aeef"/><stop offset="0.61" stop-color="#0e90d4"/><stop offset="1" stop-color="#1b75bc"/></radialGradient><radialGradient id="radial-gradient-2" cx="210.18" cy="204.17" r="90.53" gradientUnits="userSpaceOnUse"><stop offset="0" stop-color="#00aeef"/><stop offset="1" stop-color="#1b75bc"/></radialGradient><radialGradient id="radial-gradient-3" cx="111.17" cy="303.96" fx="99.73885571842273" r="68.72" gradientUnits="userSpaceOnUse"><stop offset="0.12" stop-color="#00aeef"/><stop offset="1" stop-color="#1b75bc"/></radialGradient><radialGradient id="radial-gradient-4" cx="98.57" cy="407.22" r="84.1" gradientUnits="userSpaceOnUse"><stop offset="0.17" stop-color="#00aeef"/><stop offset="0.5" stop-color="#0e90d4"/><stop offset="0.8" stop-color="#187cc2"/><stop offset="1" stop-color="#1b75bc"/></radialGradient></defs><title>SortIcon</title><path id="_Path_" data-name="&lt;Path&gt;" class="cls-1" d="M328.57,204.61l-54.78-27.39H173.18a45.43,45.43,0,1,0,0,53.91h100.6V232Z" transform="translate(-90.67 -158.24)"/><path class="cls-2" d="M383.35,321.35,328.57,294v.43H173.18a45.43,45.43,0,1,0,0,53.91H328.57v.43Z" transform="translate(-90.67 -158.24)"/><path class="cls-3" d="M450.3,438.52l-54.78-27.39v.43H173.18a45.43,45.43,0,1,0,0,53.91H395.52v.43Z" transform="translate(-90.67 -158.24)"/><text class="cls-4" transform="translate(25.32 64.19) scale(1.45 1)">1</text><text class="cls-4" transform="translate(25.32 179.19) scale(1.45 1)">2</text><text class="cls-4" transform="translate(25.32 297.45) scale(1.45 1)">3</text><text class="cls-5" transform="translate(110.07 133.07)"><tspan class="cls-6">S</tspan><tspan x="29.94" y="0">o</tspan><tspan class="cls-7" x="62.88" y="0">r</tspan><tspan class="cls-8" x="83.94" y="0">t</tspan></text><text class="cls-5" transform="translate(103.11 246.15)"><tspan class="cls-9">I</tspan><tspan class="cls-10" x="15.3" y="0">t</tspan><tspan x="34.8" y="0">ems</tspan></text></svg>